<?xml version="1.0" encoding="UTF-8" standalone="no"?>
<svg
   xmlns:dc="http://purl.org/dc/elements/1.1/"
   xmlns:cc="http://creativecommons.org/ns#"
   xmlns:rdf="http://www.w3.org/1999/02/22-rdf-syntax-ns#"
   xmlns:svg="http://www.w3.org/2000/svg"
   xmlns="http://www.w3.org/2000/svg"
   xmlns:sodipodi="http://sodipodi.sourceforge.net/DTD/sodipodi-0.dtd"
   xmlns:inkscape="http://www.inkscape.org/namespaces/inkscape"
   viewBox="0 0 500 500"
   id="svg2"
   version="1.1"
   inkscape:version="0.91 r13725"
   sodipodi:docname="unrealwargame.svg"
   width="500"
   height="500"
   inkscape:export-filename="/home/gioyik/Imágenes/unrealwargame.png"
   inkscape:export-xdpi="90"
   inkscape:export-ydpi="90">
  <metadata
     id="metadata81">
    <rdf:RDF>
      <cc:Work
         rdf:about="">
        <dc:format>image/svg+xml</dc:format>
        <dc:type
           rdf:resource="http://purl.org/dc/dcmitype/StillImage" />
        <dc:title></dc:title>
      </cc:Work>
    </rdf:RDF>
  </metadata>
  <sodipodi:namedview
     pagecolor="#e13950"
     bordercolor="#666666"
     borderopacity="1"
     objecttolerance="10"
     gridtolerance="10"
     guidetolerance="10"
     inkscape:pageopacity="1"
     inkscape:pageshadow="2"
     inkscape:window-width="1280"
     inkscape:window-height="774"
     id="namedview79"
     showgrid="false"
     inkscape:zoom="0.86915209"
     inkscape:cx="173.70251"
     inkscape:cy="255.80476"
     inkscape:window-x="0"
     inkscape:window-y="0"
     inkscape:window-maximized="1"
     inkscape:current-layer="svg2" />
  <defs
     id="defs4">
    <linearGradient
       id="linearGradient3764"
       x1="1"
       x2="47"
       gradientUnits="userSpaceOnUse"
       gradientTransform="matrix(0,-1,1,0,-1.5e-6,47.999998)">
      <stop
         stop-color="#404040"
         stop-opacity="1"
         id="stop7" />
      <stop
         offset="1"
         stop-color="#4a4a4a"
         stop-opacity="1"
         id="stop9" />
    </linearGradient>
    <clipPath
       id="clipPath-008643807">
      <g
         transform="translate(0,-1004.3622)"
         id="g12">
        <path
           d="m -24,13 c 0,1.105 -0.672,2 -1.5,2 -0.828,0 -1.5,-0.895 -1.5,-2 0,-1.105 0.672,-2 1.5,-2 0.828,0 1.5,0.895 1.5,2 z"
           transform="matrix(15.333333,0,0,11.5,414.99999,878.8622)"
           id="path14"
           inkscape:connector-curvature="0"
           style="fill:#1890d0" />
      </g>
    </clipPath>
    <clipPath
       id="clipPath-017677728">
      <g
         transform="translate(0,-1004.3622)"
         id="g17">
        <path
           d="m -24,13 c 0,1.105 -0.672,2 -1.5,2 -0.828,0 -1.5,-0.895 -1.5,-2 0,-1.105 0.672,-2 1.5,-2 0.828,0 1.5,0.895 1.5,2 z"
           transform="matrix(15.333333,0,0,11.5,414.99999,878.8622)"
           id="path19"
           inkscape:connector-curvature="0"
           style="fill:#1890d0" />
      </g>
    </clipPath>
  </defs>
  <g
     id="g33"
     transform="translate(0,452)" />
  <path
     style="fill:#f7eff1;fill-opacity:1;fill-rule:nonzero;stroke:none"
     d="m 260.08881,118.33498 0,30.21204 c 17.1888,0.29169 33.32795,5.01576 47.12565,13.2834 l 15.1058,-25.78533 c -18.28862,-10.90962 -39.47691,-17.41841 -62.23145,-17.71011 z m 77.07031,28.12811 c 1.00316,0.82197 1.97789,1.65749 2.94108,2.50397 -0.96481,-0.85414 -1.94036,-1.69533 -2.94108,-2.50397 z m 2.94108,2.50397 c 1.29246,1.14419 2.56401,2.3134 3.83301,3.48732 -1.27006,-1.19401 -2.5402,-2.35116 -3.83301,-3.48732 z m 12.68066,12.60612 c 1.14148,1.36683 2.27565,2.76607 3.3838,4.16623 -1.14148,-1.40016 -2.27565,-2.7994 -3.3838,-4.16623 z m 17.96387,27.08616 -17.21354,4.69208 c 12.23962,20.25239 11.26415,29.75394 13.3138,41.67201 1.98301,24.61123 -3.12424,37.4046 -8.3317,50.00608 l -14.83887,0 c -7.25711,14.81008 -18.23084,27.51164 -31.79525,36.72106 l 18.52214,23.70303 c 32.028,-22.62766 53.11681,-59.87446 53.11686,-102.09609 0,-19.62731 -4.69185,-38.15455 -12.75717,-54.69817 l -0.0163,0 z m -19.19759,5.27004 -2.17936,0.63822 c 0.008,0.0327 0.007,0.0929 0.0114,0.13349 l 2.12891,-0.74565 c 0.0122,-0.008 0.027,-0.0177 0.0391,-0.026 z m -2.91667,0.85312 -0.10091,0.0309 c 0.003,0.016 -0.002,0.15619 0,0.1856 l 0.20996,-0.0733 c -0.0367,-0.0476 -0.0722,-0.0958 -0.10905,-0.14327 z m -0.13346,0.0391 -0.19857,0.0586 c -0.0348,0.0738 -0.0845,0.16524 -0.12207,0.24258 l 0.28646,-0.0993 c 0.0122,-0.0775 0.0245,-0.16478 0.0342,-0.20186 z"
     id="path63"
     inkscape:connector-curvature="0" />
  <path
     style="fill:#f7eff1;fill-opacity:1;fill-rule:nonzero;stroke:none"
     d="m 209.60541,171.68186 -0.008,0.0423 c -9.95666,6.86748 -18.35568,15.69297 -24.73795,26.0442 l 10.41504,5.20981 c -7.39044,11.65137 -11.7155,25.52777 -11.7155,40.37118 0,11.49302 2.70077,22.30263 7.29166,32.03711 l -10.67382,5.20818 c 0.71655,1.50017 1.56725,2.99321 2.34212,4.42672 l -0.52571,0 c 2.14964,3.90879 4.84927,7.42516 7.54882,10.94223 6.1823,7.97595 13.60533,14.87597 22.12891,20.31828 13.53942,8.62602 29.52138,13.80275 46.86849,13.80275 2.18298,0 4.35752,-0.10052 6.50716,-0.25886 2.11632,-0.16669 4.16539,-0.4914 6.24837,-0.78309 1.23313,-0.1917 2.40763,-0.29252 3.64909,-0.52587 0.7832,-0.16669 1.56725,-0.35757 2.34212,-0.52424 1.8247,-0.42505 3.67414,-0.78411 5.46549,-1.30083 0.19165,-0.0667 0.32412,-0.19057 0.5241,-0.25724 7.58206,-2.25026 14.77355,-5.56775 21.35579,-9.6349 l -11.71549,-16.66815 -0.78288,-1.04196 c -9.79837,5.9257 -21.28786,9.37604 -33.57747,9.37604 l 0,9.90027 c -14.41427,0 -27.95439,-4.16694 -39.41081,-11.2011 l 6.25,-7.81797 c -0.16664,-0.10003 -0.35908,-0.16557 -0.52572,-0.25724 -0.94151,-0.5834 -1.91637,-1.175 -2.86621,-1.82506 -2.14965,-1.4335 -4.03157,-2.99188 -5.98958,-4.6921 -2.27462,-1.98356 -4.52416,-4.23536 -6.50717,-6.51063 -1.75803,-2.0169 -3.41646,-3.99988 -4.94954,-6.25015 -0.1,-0.16669 -0.16714,-0.35756 -0.25879,-0.52424 -0.16664,-0.25837 -0.32412,-0.52635 -0.52408,-0.78473 -1.46643,-2.30859 -2.73309,-4.81682 -3.90789,-7.29211 -0.0333,-0.13335 -0.19212,-0.16719 -0.25878,-0.25886 -3.941,-8.43434 -6.24838,-17.70923 -6.24838,-27.6104 0,-13.2182 3.93999,-25.49456 10.6722,-35.67908 0.16664,-0.25837 0.35909,-0.52637 0.52572,-0.78472 0.97484,-1.43351 2.04856,-2.83275 3.12338,-4.16624 2.34127,-2.93367 5.01621,-5.60154 7.81575,-8.07684 0.29161,-0.25836 0.52458,-0.54974 0.78288,-0.7831 1.5914,-1.36682 3.25816,-2.73385 4.94954,-3.90899 0.0667,-0.0667 0.22546,0.0333 0.25879,0 l -5.4655,-8.5913 c -0.1,0.0667 -0.13431,0.19055 -0.16764,0.25723 l -6.24837,-9.92632 z m 135.5599,81.5515 c -0.1958,1.6752 -0.45565,3.34485 -0.76498,4.99817 0.30906,-1.64292 0.5693,-3.30321 0.76498,-4.99817 z m -0.90658,5.70312 c -0.27685,1.40531 -0.58232,2.80223 -0.91797,4.19878 0.33565,-1.38227 0.64112,-2.78567 0.91797,-4.19878 z m -0.91797,4.19878 c -0.61657,2.60865 -1.23185,5.30772 -2.0817,7.81636 0.87485,-2.57532 1.46513,-5.14937 2.0817,-7.81636 z m -11.45508,26.82729 c -0.83906,1.28878 -1.71759,2.56252 -2.62695,3.81294 0.90936,-1.24031 1.78882,-2.50571 2.62695,-3.81294 z m -2.75716,3.99692 c -0.95713,1.29807 -1.95043,2.56675 -2.97526,3.82107 1.02803,-1.23649 2.02,-2.51491 2.97526,-3.82107 z m -2.97526,3.82107 c -3.03284,3.70876 -6.28301,7.25929 -9.89909,10.418 3.6494,-3.15871 6.84126,-6.67591 9.89909,-10.418 z"
     id="path65"
     inkscape:connector-curvature="0" />
  <path
     style="fill:#46475b;fill-opacity:1;fill-rule:nonzero;stroke:none"
     inkscape:connector-curvature="0"
     id="path69"
     d="m 256.94743,118.33438 c -46.90052,0.5834 -87.67706,26.91983 -108.56525,65.63272 l 12.75621,6.77581 c 8.26529,-15.33514 20.14665,-28.38668 34.36927,-38.28785 l 10.67323,11.98474 c 14.61423,-9.70113 31.96134,-15.56017 50.77487,-15.8852 m 0,-30.21189" />
  <path
     style="fill:#46475b;fill-opacity:1;fill-rule:nonzero;stroke:none"
     inkscape:connector-curvature="0"
     id="path71"
     d="m 133.77629,235.01478 c -0.19163,2.76699 -0.25829,5.50065 -0.25829,8.33432 0,18.49384 4.23262,36.03757 11.45642,51.8311 l 13.53941,-6.25074 c 22.55458,43.00506 49.99168,60.06541 99.98334,64.8493 l 0,14.58506 c 25.54574,0 49.20846,-7.68424 68.99684,-20.83579 l -18.48859,-23.96116 c -14.61423,9.20942 -31.96134,14.58506 -50.49159,14.58506 -52.36627,0 -94.77587,-42.42167 -94.77587,-94.80283 0,-2.83367 0.29161,-5.56733 0.52491,-8.33432 m -30.46159,0" />
  <path
     style="fill:#46475b;fill-opacity:1;fill-rule:nonzero;stroke:none"
     d="m 258.50515,156.69713 0,21.5442 c 2.7662,0 5.39999,0.1925 8.07454,0.52587 0.16664,0.0333 0.35745,-0.0333 0.52409,0 0.29162,0.0333 0.52458,0.22389 0.78288,0.25724 2.57457,0.39171 5.10757,0.90941 7.54883,1.56782 1.91634,0.52507 3.8744,1.14166 5.73242,1.82507 0.7832,0.2917 1.59225,0.4914 2.34212,0.7831 2.04966,0.8751 4.0649,1.8914 5.98958,2.95819 0.45826,0.1667 0.87553,0.52475 1.30046,0.78311 7.90701,4.52553 14.68143,10.67645 20.0472,17.96898 1.75804,2.3086 3.51482,4.91783 4.94792,7.4598 0.19163,0.35837 0.35908,0.71692 0.52572,1.04196 0.81653,1.59186 1.43344,3.12465 2.08333,4.71651 0.68322,1.53352 1.29962,3.05856 1.82454,4.69209 0.19163,0.49172 0.39183,0.87578 0.55013,1.30083 0.35828,1.23348 0.71672,2.40935 1.04167,3.67616 0.19163,0.8501 0.32412,1.72475 0.52408,2.60818 0.19164,0.8501 0.3585,1.56606 0.55014,2.34115 0.16663,1.3335 0.39077,2.54217 0.52408,3.90899 0.22497,2.21693 0.25879,4.52518 0.25879,6.80044 0,12.20977 -3.51601,23.57011 -9.37337,33.33793 l 11.45671,0 c -6.1823,12.46813 -15.88113,22.85284 -27.60417,30.21204 l -5.20671,-6.80043 11.68132,16.66815 c 22.06299,-13.64327 37.49401,-36.63014 40.61849,-63.54998 -0.19163,0.16669 -0.52622,0.16719 -0.78451,0.25887 0.35828,-3.31706 0.78451,-6.7754 0.78451,-10.15914 0,-16.15189 -4.35869,-31.11999 -11.98243,-44.01317 l -12.0052,2.86703 c -6.21563,-9.47612 -14.71413,-17.35311 -24.47917,-23.17879 l 7.03125,-9.37604 c -13.18114,-8.14262 -28.61203,-13.02616 -45.30924,-13.02616 z"
     id="path73"
     inkscape:connector-curvature="0" />
  <path
     style="fill:#46475b;fill-opacity:1;fill-rule:nonzero;stroke:none"
     d="m 358.85996,97.635735 -25.93099,33.184895 c 18.99018,12.89318 34.35339,30.67537 44.51335,51.40948 l 20.77474,0 c 7.29046,17.64206 14.43962,35.55278 11.66341,70.00849 -2.86952,16.68531 -1.50385,29.98683 -18.63932,58.34017 l 24.0983,6.56925 0.0244,0 c 11.29144,-23.16106 17.85808,-49.09952 17.85808,-76.57776 0,-59.11028 -29.5228,-111.2558 -74.36199,-142.934525 z m 36.06771,251.598235 c -1.59807,1.96022 -3.18492,3.92143 -4.73632,5.83499 1.59806,-1.91356 3.18491,-3.87477 4.73632,-5.83499 z m -68.53027,5.47193 c -19.31679,11.57468 -41.91224,18.19067 -65.97656,18.59904 l 0,42.29718 c 31.85635,-0.40838 61.51997,-9.52037 87.12402,-24.79383 L 326.3974,354.7059 Z m 51.40625,13.12711 c -1.71763,1.58893 -3.43825,3.17496 -5.18555,4.72627 1.74732,-1.53985 3.46675,-3.11039 5.18555,-4.72627 z m -5.18555,4.72627 c -1.407,1.23994 -2.83123,2.4609 -4.2985,3.66316 1.46331,-1.18243 2.88937,-2.41206 4.2985,-3.66316 z"
     id="path63-5"
     inkscape:connector-curvature="0" />
  <path
     style="fill:#f7eff1;fill-opacity:1;fill-rule:nonzero;stroke:none"
     inkscape:connector-curvature="0"
     id="path69-7"
     d="M 256.02343,415.60218 C 190.36268,414.78541 133.27554,377.9144 104.03207,323.71635 l 17.8587,-9.48612 c 11.5714,21.46921 28.2053,39.74135 48.11698,53.60299 l 14.94252,-16.77865 c 20.45992,13.5816 44.74588,21.78424 71.08481,22.23929 m 0,42.29665" />
  <path
     style="fill:#f7eff1;fill-opacity:1;fill-rule:nonzero;stroke:none"
     d="m 258.19265,65.561185 0,20.41922 C 188.2043,92.677845 149.79347,116.56248 118.21706,176.76955 l -18.955077,-8.75084 c -10.113312,22.11093 -16.040039,46.67158 -16.040039,72.56294 0,3.96715 0.09304,7.79457 0.361328,11.66836 l 42.682288,0 c -0.32661,-3.87379 -0.73567,-7.70121 -0.73567,-11.66836 0,-73.33361 59.37438,-132.72328 132.68717,-132.72328 25.94235,0 50.22692,7.52441 70.68685,20.41758 l 25.88542,-33.544695 c -27.70372,-18.41215 -60.83265,-29.17007 -96.59668,-29.17007 z"
     id="path71-2"
     inkscape:connector-curvature="0" />
</svg>
